# xmcd
#
# Track frame offsets:
#	182
#	12737
#	24457
#	39240
#	50585
#	69527
#	83405
#	98015
#	110942
#	123550
#	138475
#	151552
#	165450
#	178342
#	190170
#	204310
#
# Disc length: 2895 seconds
#
# Revision: 1
# Processed by: cddbd v1.5.2PL0 Copyright (c) Steve Scherf et al.
# Submitted via: audiograbber 1.83.01
#
DISCID=d20b4d10
DTITLE=White Stars - Goldene Erfolge
DYEAR=1900
DGENRE=Pop
TTITLE0=Ciao amore
TTITLE1=Ave Maria
TTITLE2=Ich bin ein treuer Mann
TTITLE3=Good old Rock'n Roll
TTITLE4=Das Bild von dir
TTITLE5=Die Sonne kommt wieder
TTITLE6=Lady Blue
TTITLE7=Liebe kommt, Liebe geht
TTITLE8=Ich war nie ein Casanova (1980)
TTITLE9=Träume sind nicht verboten
TTITLE10=Wenn du auch kein Engel bist
TTITLE11=Was man wirklich liebt
TTITLE12=Frei wie der Wind
TTITLE13=Die Nummer eins in meinem Leben
TTITLE14=Die ersten Tränen
TTITLE15=Bye, bye Little Lady
EXTD=
EXTT0=
EXTT1=
EXTT2=
EXTT3=
EXTT4=
EXTT5=
EXTT6=
EXTT7=
EXTT8=
EXTT9=
EXTT10=
EXTT11=
EXTT12=
EXTT13=
EXTT14=
EXTT15=
PLAYORDER=
